<svg width="38" height="34" viewBox="0 0 38 34" fill="none" xmlns="http://www.w3.org/2000/svg">
<path d="M12.6486 6.92741V31.8008C12.6486 32.1539 12.5604 32.4543 12.384 32.7021C12.2076 32.9499 11.9498 33.0738 11.6105 33.0738C11.3701 33.0738 11.1372 33.0172 10.9118 32.904L1.06038 27.9628C0.763794 27.8211 0.513081 27.5844 0.308239 27.2527C0.103397 26.921 0.000976562 26.5924 0.000976562 26.267V2.09309C0.000976562 1.81047 0.0717616 1.5702 0.213332 1.37228C0.354902 1.17436 0.559743 1.07541 0.827856 1.07541C1.02558 1.07541 1.3364 1.18149 1.76032 1.39366L12.5857 6.82172C12.6284 6.86447 12.6497 6.8997 12.6497 6.92741H12.6486ZM14.0045 9.06847L25.3175 27.432L14.0045 21.7913V9.06847ZM37.9639 9.45085V31.8008C37.9639 32.1539 37.865 32.4401 37.6673 32.6594C37.4696 32.8786 37.2011 32.9883 36.8618 32.9883C36.5225 32.9883 36.1907 32.8965 35.8664 32.7128L26.524 28.0471L37.9639 9.45085ZM37.8998 6.90603C37.8998 6.94878 36.0887 9.91397 32.4664 15.8016C28.8441 21.6892 26.7221 25.135 26.1005 26.1388L17.8388 12.6951L24.703 1.51953C24.9434 1.1237 25.3108 0.925781 25.8051 0.925781C26.0028 0.925781 26.1863 0.968136 26.3555 1.05284L37.8168 6.77778C37.8729 6.80628 37.901 6.84864 37.901 6.90485L37.8998 6.90603Z" fill="white"/>
</svg>
