<svg width="160" height="52" viewBox="0 0 160 52" fill="none" xmlns="http://www.w3.org/2000/svg">
<path opacity="0.4" d="M56 0H133.698C133.964 0 134.219 0.105959 134.407 0.294442L158.595 24.5889C159.372 25.3692 159.372 26.6308 158.595 27.4111L134.407 51.7056C134.219 51.894 133.964 52 133.698 52H56V0Z" fill="url(#paint0_linear_2312_1151)"/>
<path opacity="0.7" d="M28 0H105.698C105.964 0 106.219 0.105959 106.407 0.294442L130.595 24.5889C131.372 25.3692 131.372 26.6308 130.595 27.4111L106.407 51.7056C106.219 51.894 105.964 52 105.698 52H28V0Z" fill="url(#paint1_linear_2312_1151)"/>
<path d="M0 0H77.698C77.964 0 78.219 0.105959 78.4067 0.294442L102.595 24.5889C103.372 25.3692 103.372 26.6308 102.595 27.4111L78.4067 51.7056C78.219 51.894 77.964 52 77.698 52H0V0Z" fill="url(#paint2_linear_2312_1151)"/>
<defs>
<linearGradient id="paint0_linear_2312_1151" x1="160.454" y1="26" x2="78.2533" y2="26" gradientUnits="userSpaceOnUse">
<stop stop-color="#00C6A9"/>
<stop offset="1" stop-color="#00C6A9" stop-opacity="0"/>
</linearGradient>
<linearGradient id="paint1_linear_2312_1151" x1="132.454" y1="26" x2="50.2533" y2="26" gradientUnits="userSpaceOnUse">
<stop stop-color="#00C6A9"/>
<stop offset="1" stop-color="#00C6A9" stop-opacity="0"/>
</linearGradient>
<linearGradient id="paint2_linear_2312_1151" x1="104.454" y1="26" x2="22.2533" y2="26" gradientUnits="userSpaceOnUse">
<stop stop-color="#00C6A9"/>
<stop offset="1" stop-color="#00C6A9" stop-opacity="0"/>
</linearGradient>
</defs>
</svg>
