<svg width="38" height="34" viewBox="0 0 38 34" fill="none" xmlns="http://www.w3.org/2000/svg">
<path d="M34.1312 9.67773C34.1312 9.30569 34.1243 8.93785 34.1086 8.57253C35.6323 7.3875 36.9544 5.9041 38 4.20663C36.58 4.87351 35.069 5.30498 33.5215 5.48547C35.1321 4.45099 36.3673 2.79654 36.951 0.811121C35.4429 1.76571 33.7748 2.44815 32.0011 2.80375C30.58 1.116 28.552 0.0410181 26.3101 0.00107178C22.0043 -0.0732242 18.5139 3.72447 18.5139 8.48235C18.5139 9.15864 18.5817 9.8145 18.7162 10.4478C12.2323 10.0123 6.48676 6.48979 2.64345 1.17952C1.97283 2.45179 1.58809 3.93869 1.58809 5.53213C1.58809 8.54594 2.96451 11.2246 5.05585 12.8052C3.77555 12.7448 2.57622 12.3401 1.52428 11.6765V11.7872C1.52428 15.9994 4.2125 19.5286 7.77946 20.352C7.12554 20.5461 6.43582 20.6472 5.72646 20.6435C5.23361 20.6409 4.74235 20.5847 4.26063 20.476C5.25177 23.9278 8.13236 26.4497 11.5427 26.5337C8.87362 28.8435 5.51144 30.2232 1.8611 30.2136C1.2317 30.2136 0.609753 30.1695 0 30.0896C3.4516 32.5607 7.54875 34 11.9532 34C26.2904 34.0036 34.1312 20.9786 34.1312 9.67773Z" fill="white"/>
</svg>
